<svg xmlns="http://www.w3.org/2000/svg" xmlns:xlink="http://www.w3.org/1999/xlink" width="500" zoomAndPan="magnify" viewBox="0 0 375 374.999991" height="500" preserveAspectRatio="xMidYMid meet" version="1.0"><defs><g/><clipPath id="94371cab19"><path d="M 187.5 0 C 83.945312 0 0 83.945312 0 187.5 C 0 291.054688 83.945312 375 187.5 375 C 291.054688 375 375 291.054688 375 187.5 C 375 83.945312 291.054688 0 187.5 0 " clip-rule="nonzero"/></clipPath></defs><g clip-path="url(#94371cab19)"><rect x="-37.5" width="450" fill="#ad2945" y="-37.499999" height="449.999989" fill-opacity="1"/></g><g fill="#ffffff" fill-opacity="1"><g transform="translate(215.865929, 265.452692)"><g><path d="M 44.4375 -202.53125 C 64.40625 -202.53125 79.828125 -197.976562 90.703125 -188.875 C 101.578125 -179.769531 107.015625 -166.113281 107.015625 -147.90625 C 107.015625 -146.625 106.914062 -144.507812 106.71875 -141.5625 L 105.984375 -130.640625 C 105.890625 -129.648438 105.84375 -128.171875 105.84375 -126.203125 C 105.84375 -114.796875 109.085938 -105.988281 115.578125 -99.78125 C 122.078125 -93.582031 132.164062 -90.484375 145.84375 -90.484375 C 149.1875 -90.484375 151.570312 -89.671875 153 -88.046875 C 154.425781 -86.421875 155.140625 -83.691406 155.140625 -79.859375 C 155.140625 -76.023438 154.425781 -73.296875 153 -71.671875 C 151.570312 -70.046875 149.1875 -69.234375 145.84375 -69.234375 C 131.664062 -69.234375 121.28125 -66.453125 114.6875 -60.890625 C 108.101562 -55.328125 104.8125 -46.988281 104.8125 -35.875 C 104.8125 -34.6875 104.90625 -32.71875 105.09375 -29.96875 L 106.71875 -11.8125 C 106.914062 -10.039062 107.015625 -7.429688 107.015625 -3.984375 C 107.015625 13.722656 101.53125 27.003906 90.5625 35.859375 C 79.59375 44.722656 64.21875 49.15625 44.4375 49.15625 C 41.082031 49.15625 38.691406 48.34375 37.265625 46.71875 C 35.835938 45.09375 35.125 42.363281 35.125 38.53125 C 35.125 34.6875 35.835938 31.953125 37.265625 30.328125 C 38.691406 28.710938 41.082031 27.90625 44.4375 27.90625 C 58.40625 27.90625 68.613281 25.050781 75.0625 19.34375 C 81.507812 13.632812 84.734375 4.53125 84.734375 -7.96875 C 84.734375 -10.425781 84.679688 -12.296875 84.578125 -13.578125 L 83.40625 -31.4375 C 83.300781 -32.519531 83.25 -34.144531 83.25 -36.3125 C 83.25 -47.132812 86.03125 -56.0625 91.59375 -63.09375 C 97.15625 -70.132812 106.132812 -75.476562 118.53125 -79.125 L 118.53125 -80.59375 C 106.03125 -85.707031 97.050781 -92.128906 91.59375 -99.859375 C 86.132812 -107.585938 83.648438 -117.351562 84.140625 -129.15625 L 84.578125 -139.796875 C 84.972656 -149.628906 83.960938 -157.570312 81.546875 -163.625 C 79.140625 -169.675781 74.957031 -174.128906 69 -176.984375 C 63.050781 -179.835938 54.863281 -181.265625 44.4375 -181.265625 C 41.082031 -181.265625 38.691406 -182.078125 37.265625 -183.703125 C 35.835938 -185.328125 35.125 -188.054688 35.125 -191.890625 C 35.125 -195.734375 35.835938 -198.46875 37.265625 -200.09375 C 38.691406 -201.71875 41.082031 -202.53125 44.4375 -202.53125 Z M 44.4375 -202.53125 "/></g></g></g><g fill="#ffffff" fill-opacity="1"><g transform="translate(-23.701146, 266.050031)"><g><path d="M 136.703125 -202.3125 C 140.035156 -202.3125 142.414062 -201.5 143.84375 -199.875 C 145.269531 -198.257812 145.984375 -195.535156 145.984375 -191.703125 C 145.984375 -187.867188 145.269531 -185.140625 143.84375 -183.515625 C 142.414062 -181.890625 140.035156 -181.078125 136.703125 -181.078125 C 126.273438 -181.078125 118.085938 -179.648438 112.140625 -176.796875 C 106.191406 -173.953125 102.015625 -169.503906 99.609375 -163.453125 C 97.203125 -157.410156 96.195312 -149.472656 96.59375 -139.640625 L 97.03125 -129.03125 C 97.519531 -117.226562 95.035156 -107.46875 89.578125 -99.75 C 84.128906 -92.039062 75.160156 -85.628906 62.671875 -80.515625 L 62.671875 -79.046875 C 75.054688 -75.398438 84.023438 -70.0625 89.578125 -63.03125 C 95.140625 -56.007812 97.921875 -47.09375 97.921875 -36.28125 C 97.921875 -34.113281 97.867188 -32.488281 97.765625 -31.40625 L 96.59375 -13.5625 C 96.488281 -12.289062 96.4375 -10.425781 96.4375 -7.96875 C 96.4375 4.519531 99.65625 13.613281 106.09375 19.3125 C 112.53125 25.019531 122.734375 27.875 136.703125 27.875 C 140.035156 27.875 142.414062 28.679688 143.84375 30.296875 C 145.269531 31.921875 145.984375 34.648438 145.984375 38.484375 C 145.984375 42.316406 145.269531 45.046875 143.84375 46.671875 C 142.414062 48.296875 140.035156 49.109375 136.703125 49.109375 C 116.941406 49.109375 101.578125 44.679688 90.609375 35.828125 C 79.648438 26.984375 74.171875 13.710938 74.171875 -3.984375 C 74.171875 -7.421875 74.269531 -10.023438 74.46875 -11.796875 L 76.09375 -29.9375 C 76.289062 -32.6875 76.390625 -34.648438 76.390625 -35.828125 C 76.390625 -46.941406 73.09375 -55.273438 66.5 -60.828125 C 59.914062 -66.378906 49.546875 -69.15625 35.390625 -69.15625 C 32.046875 -69.15625 29.660156 -69.96875 28.234375 -71.59375 C 26.804688 -73.21875 26.09375 -75.945312 26.09375 -79.78125 C 26.09375 -83.613281 26.804688 -86.335938 28.234375 -87.953125 C 29.660156 -89.578125 32.046875 -90.390625 35.390625 -90.390625 C 49.054688 -90.390625 59.132812 -93.484375 65.625 -99.671875 C 72.113281 -105.867188 75.359375 -114.671875 75.359375 -126.078125 C 75.359375 -128.046875 75.304688 -129.519531 75.203125 -130.5 L 74.46875 -141.421875 C 74.269531 -144.367188 74.171875 -146.476562 74.171875 -147.75 C 74.171875 -165.9375 79.601562 -179.578125 90.46875 -188.671875 C 101.332031 -197.765625 116.742188 -202.3125 136.703125 -202.3125 Z M 136.703125 -202.3125 "/></g></g></g><g fill="#ffffff" fill-opacity="0.5608"><g transform="translate(86.8179, 264.538097)"><g><path d="M 66.96875 2.28125 C 50.289062 2.28125 36.722656 -3.195312 26.265625 -14.15625 C 15.804688 -25.113281 10.578125 -39.765625 10.578125 -58.109375 L 10.578125 -61.96875 C 10.578125 -74.175781 12.90625 -85.070312 17.5625 -94.65625 C 22.226562 -104.25 28.75 -111.753906 37.125 -117.171875 C 45.5 -122.597656 54.578125 -125.3125 64.359375 -125.3125 C 80.347656 -125.3125 92.773438 -120.039062 101.640625 -109.5 C 110.515625 -98.96875 114.953125 -83.882812 114.953125 -64.25 L 114.953125 -55.484375 L 31.609375 -55.484375 C 31.910156 -43.359375 35.453125 -33.5625 42.234375 -26.09375 C 49.023438 -18.625 57.648438 -14.890625 68.109375 -14.890625 C 75.535156 -14.890625 81.828125 -16.40625 86.984375 -19.4375 C 92.140625 -22.476562 96.648438 -26.5 100.515625 -31.5 L 113.375 -21.484375 C 103.0625 -5.640625 87.59375 2.28125 66.96875 2.28125 Z M 64.359375 -108.015625 C 55.867188 -108.015625 48.742188 -104.925781 42.984375 -98.75 C 37.222656 -92.570312 33.660156 -83.914062 32.296875 -72.78125 L 93.921875 -72.78125 L 93.921875 -74.359375 C 93.316406 -85.046875 90.4375 -93.328125 85.28125 -99.203125 C 80.125 -105.078125 73.148438 -108.015625 64.359375 -108.015625 Z M 64.359375 -108.015625 "/></g></g><g transform="translate(210.195589, 264.538097)"><g><path d="M 44.453125 -152.828125 L 44.453125 -123.03125 L 67.421875 -123.03125 L 67.421875 -106.765625 L 44.453125 -106.765625 L 44.453125 -30.46875 C 44.453125 -25.539062 45.472656 -21.84375 47.515625 -19.375 C 49.566406 -16.914062 53.054688 -15.6875 57.984375 -15.6875 C 60.410156 -15.6875 63.75 -16.144531 68 -17.0625 L 68 0 C 62.46875 1.519531 57.082031 2.28125 51.84375 2.28125 C 42.445312 2.28125 35.359375 -0.5625 30.578125 -6.25 C 25.804688 -11.9375 23.421875 -20.007812 23.421875 -30.46875 L 23.421875 -106.765625 L 1.015625 -106.765625 L 1.015625 -123.03125 L 23.421875 -123.03125 L 23.421875 -152.828125 Z M 44.453125 -152.828125 "/></g></g></g><g fill="#ffffff" fill-opacity="1"><g transform="translate(81.465948, 259.186146)"><g><path d="M 66.96875 2.28125 C 50.289062 2.28125 36.722656 -3.195312 26.265625 -14.15625 C 15.804688 -25.113281 10.578125 -39.765625 10.578125 -58.109375 L 10.578125 -61.96875 C 10.578125 -74.175781 12.90625 -85.070312 17.5625 -94.65625 C 22.226562 -104.25 28.75 -111.753906 37.125 -117.171875 C 45.5 -122.597656 54.578125 -125.3125 64.359375 -125.3125 C 80.347656 -125.3125 92.773438 -120.039062 101.640625 -109.5 C 110.515625 -98.96875 114.953125 -83.882812 114.953125 -64.25 L 114.953125 -55.484375 L 31.609375 -55.484375 C 31.910156 -43.359375 35.453125 -33.5625 42.234375 -26.09375 C 49.023438 -18.625 57.648438 -14.890625 68.109375 -14.890625 C 75.535156 -14.890625 81.828125 -16.40625 86.984375 -19.4375 C 92.140625 -22.476562 96.648438 -26.5 100.515625 -31.5 L 113.375 -21.484375 C 103.0625 -5.640625 87.59375 2.28125 66.96875 2.28125 Z M 64.359375 -108.015625 C 55.867188 -108.015625 48.742188 -104.925781 42.984375 -98.75 C 37.222656 -92.570312 33.660156 -83.914062 32.296875 -72.78125 L 93.921875 -72.78125 L 93.921875 -74.359375 C 93.316406 -85.046875 90.4375 -93.328125 85.28125 -99.203125 C 80.125 -105.078125 73.148438 -108.015625 64.359375 -108.015625 Z M 64.359375 -108.015625 "/></g></g><g transform="translate(204.843636, 259.186146)"><g><path d="M 44.453125 -152.828125 L 44.453125 -123.03125 L 67.421875 -123.03125 L 67.421875 -106.765625 L 44.453125 -106.765625 L 44.453125 -30.46875 C 44.453125 -25.539062 45.472656 -21.84375 47.515625 -19.375 C 49.566406 -16.914062 53.054688 -15.6875 57.984375 -15.6875 C 60.410156 -15.6875 63.75 -16.144531 68 -17.0625 L 68 0 C 62.46875 1.519531 57.082031 2.28125 51.84375 2.28125 C 42.445312 2.28125 35.359375 -0.5625 30.578125 -6.25 C 25.804688 -11.9375 23.421875 -20.007812 23.421875 -30.46875 L 23.421875 -106.765625 L 1.015625 -106.765625 L 1.015625 -123.03125 L 23.421875 -123.03125 L 23.421875 -152.828125 Z M 44.453125 -152.828125 "/></g></g></g></svg>